# Cube (1x1x1) centered at origin
o Cube
s off

# positions
v -0.5 -0.5  0.5
v  0.5 -0.5  0.5
v  0.5  0.5  0.5
v -0.5  0.5  0.5
v -0.5 -0.5 -0.5
v  0.5 -0.5 -0.5
v  0.5  0.5 -0.5
v -0.5  0.5 -0.5

# texcoords
vt 0.0 0.0
vt 1.0 0.0
vt 1.0 1.0
vt 0.0 1.0

# normals
vn  0.0  0.0  1.0
vn  0.0  0.0 -1.0
vn -1.0  0.0  0.0
vn  1.0  0.0  0.0
vn  0.0  1.0  0.0
vn  0.0 -1.0  0.0

# faces (quads; your loader triangulates fan)
# front (+Z)
f 1/1/1 2/2/1 3/3/1 4/4/1

# back (-Z)
f 5/1/2 8/2/2 7/3/2 6/4/2

# left (-X)
f 5/1/3 1/2/3 4/3/3 8/4/3

# right (+X)
f 2/1/4 6/2/4 7/3/4 3/4/4

# top (+Y)
f 4/1/5 3/2/5 7/3/5 8/4/5

# bottom (-Y)
f 5/1/6 6/2/6 2/3/6 1/4/6
